<mxfile host="app.diagrams.net" modified="2021-05-30T02:25:55.765Z" agent="5.0 (Macintosh; Intel Mac OS X 10_15_7) AppleWebKit/537.36 (KHTML, like Gecko) Chrome/90.0.4430.212 Safari/537.36" etag="jYlRmq9yBmZIg3HJhXnV" version="14.5.10" type="github">
  <diagram id="vKzAl6LUnmFfcjDNF7Mo" name="Page-1">
    <mxGraphModel dx="943" dy="569" grid="1" gridSize="10" guides="1" tooltips="1" connect="1" arrows="1" fold="1" page="1" pageScale="1" pageWidth="3300" pageHeight="4681" math="0" shadow="0">
      <root>
        <mxCell id="0" />
        <mxCell id="1" parent="0" />
        <mxCell id="m2jUDlIptU0_OzDmz89p-1" value="" style="rounded=0;whiteSpace=wrap;html=1;" vertex="1" parent="1">
          <mxGeometry x="130" y="120" width="690" height="300" as="geometry" />
        </mxCell>
        <mxCell id="m2jUDlIptU0_OzDmz89p-2" value="" style="rounded=0;whiteSpace=wrap;html=1;fillColor=#4FE4FF;" vertex="1" parent="1">
          <mxGeometry x="160" y="160" width="140" height="50" as="geometry" />
        </mxCell>
        <mxCell id="m2jUDlIptU0_OzDmz89p-3" value="style 中 v-bind 绑定变量" style="rounded=0;whiteSpace=wrap;html=1;fillColor=#4FE4FF;" vertex="1" parent="1">
          <mxGeometry x="350" y="160" width="140" height="50" as="geometry" />
        </mxCell>
        <mxCell id="m2jUDlIptU0_OzDmz89p-4" value="html 对应元素绑定 style" style="rounded=0;whiteSpace=wrap;html=1;fillColor=#4FE4FF;" vertex="1" parent="1">
          <mxGeometry x="530" y="160" width="140" height="50" as="geometry" />
        </mxCell>
      </root>
    </mxGraphModel>
  </diagram>
</mxfile>
